<svg xmlns="http://www.w3.org/2000/svg" preserveAspectRatio="xMidYMid" width="209.06" height="373.16" viewBox="0 0 209.06 373.16"><defs><style>.cls-1{fill:#eaeced;fill-rule:evenodd}</style></defs><path d="M174.93 120.327c0-24.712-3.903-25.037-18.535-25.037H59.822v33.817h-28.94c-1.95-26.013-10.08-41.62-25.362-47.15V30.584h156.077c11.38 0 13.332-4.552 13.332-23.086V.017h28.613v129.09H174.93v-8.78zm-70.236 59.364c63.732 0 104.377 39.996 104.377 97.224 0 56.253-40.644 96.247-104.376 96.247-63.73 0-104.702-39.668-104.702-96.897 0-56.252 40.646-96.572 104.702-96.572zm0 123.562c49.424 0 72.836-7.154 72.836-26.663 0-19.836-23.412-26.665-72.836-26.665s-73.16 7.154-73.16 26.338c0 19.835 23.736 26.99 73.16 26.99z" class="cls-1"/></svg>