<svg xmlns="http://www.w3.org/2000/svg" preserveAspectRatio="xMidYMid" width="209.4" height="397.84" viewBox="0 0 209.4 397.84"><defs><style>.cls-1{fill:#eaeced;fill-rule:evenodd}</style></defs><path d="M194.113 131.35c0 8.78 3.252 13.657 9.755 15.933v34.142c-2.6 0-4.877.325-7.153.325-31.216 0-51.7-12.356-72.186-38.694-12.682-15.932-21.787-35.442-34.468-52.35-6.503-8.78-16.908-13.657-27.64-13.657-16.907 0-27.312 12.68-27.312 34.14 0 13.332 4.227 24.063 13.006 32.192v-1.626c0-15.608 8.454-24.387 23.087-24.387 19.184 0 30.565 12.355 30.565 32.19 0 19.834-13.332 32.84-34.792 32.84-37.72 0-66.984-34.79-66.984-87.467 0-53.327 28.615-87.47 66.984-87.47 35.442 0 52.025 23.738 66.332 71.862 9.105 30.89 12.03 51.375 29.265 57.228-7.48-13.982-11.38-27.638-11.38-41.946 0-19.51 7.803-35.442 7.803-47.473 0-9.104-7.154-13.657-22.11-13.657h-2.927V.31c3.9-.324 7.802-.324 11.38-.324 44.22 0 64.056 16.908 64.056 56.253 0 31.54-15.283 57.552-15.283 75.11zm-89.42 73.02c63.733 0 104.378 39.996 104.378 97.224 0 56.253-40.644 96.247-104.376 96.247-63.73 0-104.702-39.668-104.702-96.897 0-56.252 40.646-96.572 104.702-96.572zm0 123.562c49.425 0 72.837-7.154 72.837-26.663 0-19.836-23.412-26.665-72.836-26.665s-73.16 7.154-73.16 26.338c0 19.835 23.736 26.99 73.16 26.99z" class="cls-1"/></svg>