<svg xmlns="http://www.w3.org/2000/svg" preserveAspectRatio="xMidYMid" width="209.06" height="396.22" viewBox="0 0 209.06 396.22"><defs><style>.cls-1{fill:#eaeced;fill-rule:evenodd}</style></defs><path d="M155.42 182.732c-21.136 0-36.094-15.608-36.094-36.418 0-18.534 11.056-30.89 27.964-30.89 15.283 0 22.436 8.13 24.387 26.012 5.203-8.78 7.48-19.51 7.48-31.865 0-25.687-12.357-39.67-33.493-39.67-20.16 0-31.215 12.682-31.215 36.744H87.134c-.975-23.086-8.78-33.816-25.037-33.816-18.86 0-31.54 13.656-31.54 35.767 0 12.68 3.25 21.46 11.38 27.964 0-12.357 8.78-20.486 21.136-20.486 16.908 0 26.012 10.73 26.012 29.915 0 18.858-12.356 31.54-30.24 31.54-34.467 0-58.854-33.167-58.854-91.37 0-50.726 21.136-78.69 54.302-78.69 21.136 0 35.443 12.03 42.92 36.093 9.43-29.264 26.34-43.57 51.702-43.57 36.743 0 60.155 32.19 60.155 88.117 0 62.756-18.86 94.622-53.65 94.622zm-50.726 20.02c63.732 0 104.377 39.994 104.377 97.222 0 56.253-40.644 96.247-104.376 96.247-63.73 0-104.702-39.668-104.702-96.897 0-56.252 40.646-96.572 104.702-96.572zm0 123.56c49.424 0 72.836-7.154 72.836-26.663 0-19.836-23.412-26.665-72.836-26.665s-73.16 7.154-73.16 26.338c0 19.835 23.736 26.99 73.16 26.99z" class="cls-1"/></svg>