<svg xmlns="http://www.w3.org/2000/svg" preserveAspectRatio="xMidYMid" width="209.06" height="401.75" viewBox="0 0 209.06 401.75"><defs><style>.cls-1{fill:#eaeced;fill-rule:evenodd}</style></defs><path d="M174.93 117.377c0-24.712-4.228-25.038-18.86-25.038h-9.105v97.873h-34.792L5.52 92.013v-61.13h113.806V-.006h27.64v30.89h14.63c11.382 0 13.333-4.55 13.333-23.085V-.006h28.613v126.162H174.93v-8.78zM119.325 92.34l-69.26-.65 69.26 63.08V92.34zm-14.632 115.94c63.732 0 104.377 39.996 104.377 97.224 0 56.253-40.644 96.247-104.376 96.247-63.73 0-104.702-39.668-104.702-96.897 0-56.252 40.646-96.572 104.702-96.572zm0 123.562c49.424 0 72.836-7.154 72.836-26.663 0-19.836-23.412-26.665-72.836-26.665s-73.16 7.154-73.16 26.338c0 19.835 23.736 26.99 73.16 26.99z" class="cls-1"/></svg>