<svg xmlns="http://www.w3.org/2000/svg" width="611.56" height="294.876" viewBox="0 0 611.56 294.876"><defs><style>.cls-1{fill:#fff;fill-rule:evenodd}</style></defs><path class="cls-1" d="M19.21 191.187h91.45v38.75h57.66v-38.75h23.25v-43.09h-23.25V12.938h-54.56L-.01 148.408zm35.03-43.09l56.42-70.99v70.99H54.24zm384.97 43.09h91.45v38.75h57.66v-38.75h23.25v-43.09h-23.25V12.938h-54.56l-113.77 135.47zm35.03-43.09l56.42-70.99v70.99h-56.42zm-104.12 47.787v-.014q-.045-.48-.12-.952c-.01-.132-.03-.266-.05-.4-.04-.266-.08-.53-.13-.793-.03-.182-.06-.364-.1-.545-.04-.225-.09-.447-.14-.67l-.15-.656-.15-.56c-.07-.25-.14-.5-.22-.752-.04-.152-.09-.3-.14-.455-.09-.282-.19-.563-.29-.84a5.052 5.052 0 0 0-.13-.355c-.11-.312-.24-.622-.36-.928-.04-.083-.07-.166-.11-.248-.15-.344-.3-.684-.46-1.02a.836.836 0 0 0-.07-.136q-.27-.57-.57-1.12s0-.01-.01-.012a27.6 27.6 0 0 0-13.46-12.228l-.03-.012q-.585-.245-1.17-.464l-.12-.04a26.3 26.3 0 0 0-1.11-.378c-.06-.02-.12-.04-.19-.06-.35-.107-.7-.207-1.06-.3l-.25-.067c-.34-.087-.68-.164-1.02-.236l-.31-.07c-.33-.064-.65-.12-.98-.174-.12-.02-.24-.043-.37-.062a28.62 28.62 0 0 0-.96-.123c-.13-.015-.26-.033-.39-.046-.34-.034-.67-.057-1.01-.078-.12-.008-.24-.02-.36-.026-.46-.022-.92-.035-1.38-.035a27.5 27.5 0 0 0-27.5 27.5q0 .685.03 1.36l.03.345c.02.333.04.666.07 1 .02.14.04.28.05.42.04.3.07.607.12.907.02.144.04.287.07.43.04.3.1.6.16.89.02.135.05.27.08.406q.09.457.21.91l.09.357c.09.323.18.643.28.962.02.093.05.186.08.28.11.362.24.72.36 1.077a.794.794 0 0 1 .05.138 27.7 27.7 0 0 0 3.01 5.866.2.2 0 0 0 .04.056q.345.515.72 1.012a.287.287 0 0 0 .05.066c.25.335.51.665.77.99l.03.027c.1.12.19.244.3.364h.01a27.484 27.484 0 0 0 48.39-17.857c0-.893-.05-1.775-.13-2.647zM351.02 7.89c-54.61-21.418-108.87 1.123-133.44 63.776-19.7 50.233-7.87 94.526 25.74 121.154 3.29 6.38 6.6 15.052 4.22 20.88-8.47 20.715-22.92 42.7-27.03 52.74s3.13 19.414 17.02 25.1 25.5 4.368 29.73-5.976 9.21-35.858 17.68-56.56c2.54-6.208 11.74-10.182 18.71-12.373a97.355 97.355 0 0 0 11.1.268 33.49 33.49 0 1 1 60.68-25.7c12.13-11.525 22.36-26.86 29.83-45.916 24.57-62.66.1-116.08-54.24-137.39z"/></svg>