<svg xmlns="http://www.w3.org/2000/svg" width="209.406" height="387.6" viewBox="0 0 209.406 387.6"><defs><style>.cls-1{fill:#eaeced;fill-rule:evenodd}</style></defs><path id="_05" data-name="5" class="cls-1" d="M104.696 327.43c-51.7 0-76.087-9.43-76.087-34.14s24.386-33.82 76.086-33.82 75.762 9.43 75.762 34.14-24.06 33.82-75.762 33.82zm0 60.16c64.057 0 104.377-38.7 104.377-93.98s-40.32-94.29-104.377-94.29c-64.382 0-104.7 38.69-104.7 93.97s40.644 94.3 104.7 94.3zm-1.626-227.92v-31.22c-8.78-7.15-13.006-16.91-13.006-29.59 0-22.43 15.933-36.74 41.3-36.74 32.516 0 51.05 16.26 51.05 42.92 0 10.73-3.576 20.48-10.73 30.89-1.626-16.58-10.73-26.01-24.387-26.01-15.608 0-27.313 11.7-27.313 28.61 0 20.81 13.656 34.14 33.816 34.14 32.19 0 55.6-29.91 55.6-79.66 0-56.58-31.216-93-75.437-93-45.2 0-73.812 33.17-73.812 83.89 0 16.26 3.253 30.57 10.73 43.9l-28.613-1.3a185.422 185.422 0 0 0 3.252-32.52c0-52.02-21.462-82.91-39.345-82.91-3.252 0-5.528 2.27-5.528 6.83 0 7.48 6.178 27.63 6.178 60.48a484.92 484.92 0 0 1-5.853 75.43z"/></svg>