<svg id="Layer_1" xmlns="http://www.w3.org/2000/svg" viewBox="-23 -25.1 51.1 51.1"><style>.st0{fill:#FFF}</style><path class="st0" d="M27.6-4.7c-.3-1.6-.8-3.3-1.5-4.8-.6-1.5-1.4-3-2.4-4.3-.9-1.4-2-2.6-3.1-3.8-1.2-1.2-2.4-2.2-3.8-3.1-1.4-.9-2.8-1.7-4.3-2.4-1.5-.6-3.2-1.2-4.8-1.5-1.7-.3-3.4-.5-5.1-.5-1.7 0-3.5.2-5.1.5-1.6.3-3.3.8-4.8 1.5-1.5.6-3 1.4-4.3 2.4-1.4.9-2.6 2-3.8 3.1-1.2 1.2-2.2 2.4-3.1 3.8-.9 1.4-1.7 2.8-2.4 4.3s-1.2 3.2-1.5 4.8C-22.8-3-23-1.3-23 .5c0 1.7.2 3.5.5 5.1.3 1.6.8 3.3 1.5 4.8.6 1.5 1.4 3 2.4 4.3.9 1.4 2 2.6 3.1 3.8 1.2 1.2 2.4 2.2 3.8 3.1 1.4.9 2.8 1.7 4.3 2.4s3.2 1.2 4.8 1.5c1.7.3 3.4.5 5.1.5 1.7 0 3.5-.2 5.1-.5 1.6-.3 3.3-.8 4.8-1.5 1.5-.6 3-1.4 4.3-2.4 1.4-.9 2.6-2 3.8-3.1 1.2-1.2 2.2-2.4 3.1-3.8.9-1.4 1.7-2.8 2.4-4.3s1.2-3.2 1.5-4.8c.3-1.7.5-3.4.5-5.1.1-1.8-.1-3.5-.4-5.2zm-3.3 5C24 .2 16.7-1.4 9.2-.5c-.2-.3-.3-.7-.5-1.1-.5-1.1-1-2.1-1.5-3.2 8.6-3.5 12.1-8.6 12.1-8.6 3.1 3.7 5 8.5 5 13.7zM17-15.9c-.1.1-3.2 4.8-11.4 7.9-3.7-6.8-7.8-12.3-8.2-12.7 1.6-.4 3.4-.6 5.1-.6 5.6 0 10.6 2 14.5 5.4zm-19.7-4.8zm-4.1 1.4c.3.4 4.3 5.9 8.1 12.6C-9.1-3.9-18.2-4-18.8-4c1.4-6.8 6-12.4 12-15.3zM-19.3.5v-.7c.4 0 11.2.3 22.4-3.1C3.7-2.1 4.3-.8 4.9.4c-.3.1-.6.1-.8.2C-7.7 4.4-13.7 15-13.7 15c-3.4-3.8-5.6-8.9-5.6-14.5zM2.5 22.3c-5.3 0-10.1-1.9-13.9-5 .3.2.5.4.5.4S-6.7 8.5 6.3 4h.1c3.1 8 4.3 14.6 4.7 16.6-2.7 1.1-5.5 1.7-8.6 1.7zm12.2-3.7c-.2-1.3-1.4-7.7-4.2-15.6 7-1.1 13.1.8 13.6 1-1 6-4.5 11.2-9.4 14.6z"/></svg>