<svg xmlns="http://www.w3.org/2000/svg" preserveAspectRatio="xMidYMid" width="51.1" height="51.06" viewBox="0 0 51.1 51.06"><defs><style>.cls-1{fill:#636363;fill-rule:evenodd}</style></defs><path d="M50.562 20.39a25.366 25.366 0 0 0-3.843-9.137 25.725 25.725 0 0 0-6.893-6.892 25.387 25.387 0 0 0-4.337-2.356A25.624 25.624 0 0 0 20.407.517c-1.64.333-3.256.838-4.798 1.487a25.396 25.396 0 0 0-4.338 2.357 25.648 25.648 0 0 0-9.247 11.23 25.554 25.554 0 0 0-2.008 9.938 25.503 25.503 0 0 0 2.008 9.942 25.656 25.656 0 0 0 5.47 8.115A25.798 25.798 0 0 0 11.27 46.7a25.52 25.52 0 0 0 4.338 2.354 25.553 25.553 0 0 0 19.88 0 25.51 25.51 0 0 0 4.336-2.354 25.79 25.79 0 0 0 3.777-3.115 25.733 25.733 0 0 0 3.116-3.777 25.45 25.45 0 0 0 4.362-14.28c0-1.73-.175-3.46-.52-5.138zm-3.214 4.922c-.316-.07-7.695-1.656-15.188-.714a67.43 67.43 0 0 0-1.92-4.29c8.61-3.513 12.108-8.57 12.15-8.63a21.715 21.715 0 0 1 4.958 13.634zM39.95 9.166c-.052.084-3.158 4.81-11.39 7.895-3.726-6.848-7.82-12.288-8.15-12.72 1.65-.4 3.368-.616 5.14-.616 5.52 0 10.56 2.058 14.4 5.442zM20.33 4.358c0 .003-.005.004-.005.004l-.065.014c.022-.006.046-.01.07-.018zm-4.082 1.45c.29.39 4.323 5.857 8.097 12.564-10.47 2.782-19.556 2.673-20.132 2.664C5.63 14.28 10.166 8.68 16.247 5.81zm-12.5 19.72c0-.232.01-.46.017-.687.385.01 11.16.252 22.385-3.107a69.947 69.947 0 0 1 1.77 3.706c-.29.08-.574.167-.86.26C15.29 29.503 9.323 40.09 9.323 40.09s.007.007.008.01A21.728 21.728 0 0 1 3.746 25.53zM25.55 47.335a21.72 21.72 0 0 1-13.89-4.996c.287.23.488.38.488.38s4.18-9.117 17.112-13.622c.047-.018.096-.032.144-.046 3.07 7.972 4.336 14.65 4.658 16.557a21.72 21.72 0 0 1-8.512 1.725zm12.184-3.72c-.222-1.317-1.384-7.716-4.244-15.575 7.04-1.126 13.138.805 13.588.95-.97 6.078-4.448 11.32-9.344 14.625z" class="cls-1"/></svg>