<svg xmlns="http://www.w3.org/2000/svg" preserveAspectRatio="xMidYMid" width="50.12" height="50.13" viewBox="0 0 50.12 50.13"><defs><style>.cls-1{fill:#636363;fill-rule:evenodd}</style></defs><path d="M40.443-.01H9.688C4.346-.01 0 4.335 0 9.678v30.756c0 5.342 4.346 9.687 9.688 9.687h30.755c5.342 0 9.688-4.344 9.688-9.686V9.678c0-5.343-4.345-9.688-9.687-9.688zm2.778 5.778l1.11-.004v8.497l-8.47.028-.028-8.495 7.39-.025zM17.91 19.91c1.606-2.222 4.21-3.678 7.155-3.678 2.945 0 5.55 1.456 7.155 3.678a8.777 8.777 0 0 1 1.67 5.147c0 4.862-3.96 8.82-8.825 8.82-4.865 0-8.823-3.958-8.823-8.82 0-1.922.624-3.696 1.67-5.147zm27.336 20.524a4.808 4.808 0 0 1-4.803 4.803H9.688a4.808 4.808 0 0 1-4.804-4.803V19.91h7.483a13.642 13.642 0 0 0-1.01 5.147c0 7.555 6.15 13.706 13.708 13.706 7.56 0 13.708-6.15 13.708-13.706 0-1.82-.366-3.557-1.012-5.147h7.486v20.524z" class="cls-1"/></svg>