<svg id="Layer_1" xmlns="http://www.w3.org/2000/svg" viewBox="-24 -25.1 50.1 50.1"><style>.st0{fill:#FFF}</style><path class="st0" d="M16.4-25.1h-30.8c-5.3 0-9.7 4.3-9.7 9.7v30.7c0 5.3 4.3 9.7 9.7 9.7h30.8c5.3 0 9.7-4.3 9.7-9.7v-30.7c0-5.4-4.3-9.7-9.7-9.7zm2.8 5.7h1.1v8.5h-8.5v-8.5h7.4zM-6.1-5.2c1.6-2.2 4.2-3.7 7.2-3.7s5.5 1.5 7.2 3.7C9.3-3.7 10-2 10-.1c0 4.9-4 8.8-8.8 8.8-4.9 0-8.8-4-8.8-8.8-.2-1.9.5-3.7 1.5-5.1zm27.3 20.5c0 2.6-2.2 4.8-4.8 4.8h-30.8c-2.6 0-4.8-2.2-4.8-4.8V-5.2h7.5c-.6 1.6-1 3.3-1 5.1 0 7.6 6.1 13.7 13.7 13.7S14.7 7.4 14.7-.1c0-1.8-.4-3.6-1-5.1h7.5v20.5z"/></svg>