<svg xmlns="http://www.w3.org/2000/svg" preserveAspectRatio="xMidYMid" width="48.41" height="48.72" viewBox="0 0 48.41 48.72"><defs><style>.cls-1{fill:#636363;fill-rule:evenodd}</style></defs><path d="M44.817 48.704H3.583C1.61 48.704.01 47.14.01 45.216V3.5C.01 1.575 1.61.013 3.582.013h41.234c1.976 0 3.576 1.562 3.576 3.49v41.714c0 1.925-1.6 3.488-3.576 3.488zm-37.45-7.932h7.307V18.786H7.366v21.986zm3.702-32.586c-2.5 0-4.135 1.642-4.135 3.798 0 2.11 1.586 3.8 4.037 3.8h.05c2.547 0 4.135-1.69 4.135-3.8-.05-2.156-1.588-3.798-4.088-3.798zm29.956 19.98c0-6.756-3.604-9.9-8.412-9.9-3.88 0-5.616 2.135-6.587 3.632v-3.112H18.72c.094 2.06 0 21.986 0 21.986h7.307v-12.28c0-.656.047-1.31.24-1.782.53-1.313 1.732-2.672 3.75-2.672 2.645 0 3.702 2.016 3.702 4.97v11.764h7.306V28.165zm-15.048-6.19c.016-.027.034-.052.05-.078v.077h-.05z" class="cls-1"/></svg>