<svg id="Layer_1" xmlns="http://www.w3.org/2000/svg" viewBox="-25 -24.7 48.4 48.7"><style>.st0{fill:#FFF}</style><path class="st0" d="M19.8 24h-41.2c-2 0-3.6-1.6-3.6-3.5v-41.7c0-1.9 1.6-3.5 3.6-3.5h41.2c2 0 3.6 1.6 3.6 3.5v41.7c0 1.9-1.6 3.5-3.6 3.5zm-37.4-7.9h7.3v-22h-7.3v22zm3.7-32.6c-2.5 0-4.1 1.6-4.1 3.8 0 2.1 1.6 3.8 4 3.8 2.5 0 4.1-1.7 4.1-3.8 0-2.2-1.5-3.8-4-3.8zM16 3.4c0-6.8-3.6-9.9-8.4-9.9C3.7-6.5 2-4.3 1-2.8v-3.1h-7.3c.1 2.1 0 22 0 22H1V3.8c0-.7 0-1.3.2-1.8C1.8.7 3-.7 5-.7c2.6 0 3.7 2 3.7 5v11.8H16V3.4zM1-2.7c0-.1 0-.1 0 0z"/></svg>