<svg xmlns="http://www.w3.org/2000/svg" preserveAspectRatio="xMidYMid" width="361.188" height="38.062" viewBox="0 0 361.188 38.062"><defs><style>.cls-1{fill:#fff;fill-rule:evenodd}</style></defs><path d="M352.82 37.45l-16.53-21.54v21.54h-9.97V.613h9.647l15.243 20.28V.61h9.97v36.84h-8.36zm-47.847.6c-12.35 0-20.066-7.8-20.066-18.898 0-11.58 8.553-19.14 21.095-19.14 4.373 0 8.554 1.14 11.448 2.88v9.36c-3.023-2.04-6.624-3.36-11.448-3.36-6.302 0-10.74 3.9-10.74 10.26 0 6.24 4.05 10.32 10.032 10.32 2.06 0 3.795-.422 5.08-1.322v-3.6h-5.722v-7.678h14.856V33.13c-3.987 3.42-9.068 4.92-14.535 4.92zM268.573.612h10.355v36.84h-10.355V.61zm-14.332 14.64c7.205 2.1 10.485 5.64 10.485 11.28 0 7.978-7.268 11.518-16.144 11.518-5.272 0-10.032-1.38-12.926-3v-8.88c3.408 2.16 8.232 3.84 12.67 3.84 3.28 0 6.11-.66 6.11-2.94 0-1.8-1.222-2.398-3.345-3.12l-5.982-1.62c-6.624-1.8-10.29-4.86-10.29-10.978 0-7.32 6.624-11.34 14.92-11.34 5.34 0 9.133 1.08 12.414 2.76v8.88c-3.537-2.28-7.46-3.66-11.963-3.66-2.96 0-5.21.78-5.21 2.64 0 1.68 1.222 2.34 3.28 2.94l5.98 1.68zM202.285.612h28.235v8.28h-18.074v5.76h16.53v8.1h-16.53v6.36h18.073v8.34h-28.236V.61zM178.1 37.452h-14.92V.61h14.92c12.414 0 19.94 7.2 19.94 18.42 0 11.22-7.526 18.42-19.94 18.42zm-.513-28.56h-4.245v20.22h4.245c6.56 0 10.225-3.9 10.225-10.08 0-6.24-3.666-10.14-10.225-10.14zM130.87 38.05c-11.385 0-19.23-8.04-19.23-19.02 0-11.038 7.845-19.018 19.23-19.018 11.448 0 19.358 7.98 19.358 19.02 0 10.978-7.91 19.018-19.36 19.018zm0-29.58c-5.34 0-8.812 4.202-8.812 10.56 0 6.36 3.473 10.56 8.81 10.56 5.34 0 8.94-4.2 8.94-10.56 0-6.358-3.6-10.56-8.94-10.56zM93.487 37.75c-3.365 0-9.385-2.033-11.84-3.18a17.526 17.526 0 0 0 5.678-6.59c1.53.683 3.087 1.07 4.923 1.07 3.922 0 5.095-1.98 5.095-6.6V.73h10v23.46c0 9.48-5.238 13.56-13.857 13.56zm-27.87.3c-8.356 0-14.79-4.342-17.63-10.988L54.802 2.96c3-1.88 6.67-2.948 10.816-2.948 11.447 0 19.357 7.98 19.357 19.02 0 10.978-7.91 19.018-19.358 19.018zm0-29.58c-5.338 0-8.81 4.202-8.81 10.56 0 6.36 3.472 10.56 8.81 10.56 5.338 0 8.94-4.2 8.94-10.56 0-6.358-3.602-10.56-8.94-10.56zM29.602 37.45l-3.485-12.964-3.65 12.965h-12.1L.008.613h10.547l6.44 22.66 4.73-15.102-2.03-7.558H30.2l6.047 22.66L41.714.61h10.42l-10.42 36.84H29.6z" class="cls-1"/></svg>