<svg xmlns="http://www.w3.org/2000/svg" width="451.28" height="940.7" viewBox="0 0 451.28 940.7"><defs><style>.cls-1,.cls-2{fill:#fff;stroke:#b3b6b6;stroke-width:1px}.cls-1{fill-rule:evenodd}</style></defs><path class="cls-1" d="M384.02.5H73.6A66.767 66.767 0 0 0 6.85 67.3v59.4H4.7a4.214 4.214 0 0 0-4.21 4.2v37.7a4.214 4.214 0 0 0 4.21 4.2h2.15v33H4.7A4.214 4.214 0 0 0 .49 210v37.8A4.214 4.214 0 0 0 4.7 252h2.15v32.1H4.7a4.214 4.214 0 0 0-4.21 4.2V326a4.214 4.214 0 0 0 4.21 4.2h2.15v543.3a66.746 66.746 0 0 0 66.75 66.7h310.42a66.746 66.746 0 0 0 66.75-66.7V67.3A66.767 66.767 0 0 0 384.02.5"/><rect id="Rounded_Rectangle_2" data-name="Rounded Rectangle 2" class="cls-2" x="179.06" y="44.1" width="105.82" height="14.2" rx="3.547" ry="3.547"/><rect id="Rounded_Rectangle_2_copy_8" data-name="Rounded Rectangle 2 copy 8" class="cls-2" x="202.5" y="861.8" width="62.63" height="62.6" rx="15.656" ry="15.656"/><rect id="Rounded_Rectangle_2_copy_9" data-name="Rounded Rectangle 2 copy 9" class="cls-2" x="220.81" y="880.1" width="26.07" height="26.1" rx="2" ry="2"/></svg>