<svg id="Layer_1" xmlns="http://www.w3.org/2000/svg" viewBox="-21 -22.8 56.4 45.8"><style>.st0{fill:#FFF}</style><path class="st0" d="M35.4-17.4c-2.1.9-4.3 1.5-6.6 1.8 2.4-1.4 4.2-3.7 5.1-6.4-2.2 1.3-4.7 2.3-7.3 2.8-2.1-2.2-5.1-3.7-8.4-3.7-6.4 0-11.6 5.2-11.6 11.6 0 .9.1 1.8.3 2.6-9.6-.5-18.1-5.1-23.8-12.1-1 1.7-1.6 3.7-1.6 5.8 0 4 2 7.6 5.1 9.6-1.9-.1-3.7-.6-5.2-1.4v.1c0 5.6 4 10.3 9.3 11.3-1 .3-2 .4-3 .4-.7 0-1.5-.1-2.2-.2 1.5 4.6 5.7 7.9 10.8 8-4 3.1-8.9 5-14.4 5-.9 0-1.9-.1-2.8-.2 5 3.5 11.1 5.4 17.6 5.4C18 23 29.6 5.4 29.6-9.9v-1.5c2.3-1.6 4.2-3.7 5.8-6z"/></svg>